<svg width="651" height="202" viewBox="0 0 651 202" fill="none" xmlns="http://www.w3.org/2000/svg">
<path d="M57.4 149.4C41 149.4 27.5333 145.533 17 137.8C6.46667 129.933 0.8 118.733 2.98023e-08 104.2H41.8C42.2 109.133 43.6667 112.733 46.2 115C48.7333 117.267 52 118.4 56 118.4C59.6 118.4 62.5333 117.533 64.8 115.8C67.2 113.933 68.4 111.4 68.4 108.2C68.4 104.067 66.4667 100.867 62.6 98.6C58.7333 96.3333 52.4667 93.8 43.8 91C34.6 87.9333 27.1333 85 21.4 82.2C15.8 79.2667 10.8667 75.0667 6.6 69.6C2.46667 64 0.4 56.7333 0.4 47.8C0.4 38.7333 2.66667 31 7.2 24.6C11.7333 18.0667 18 13.1333 26 9.79999C34 6.46666 43.0667 4.8 53.2 4.8C69.6 4.8 82.6667 8.66666 92.4 16.4C102.267 24 107.533 34.7333 108.2 48.6H65.6C65.4667 44.3333 64.1333 41.1333 61.6 39C59.2 36.8667 56.0667 35.8 52.2 35.8C49.2667 35.8 46.8667 36.6667 45 38.4C43.1333 40.1333 42.2 42.6 42.2 45.8C42.2 48.4667 43.2 50.8 45.2 52.8C47.3333 54.6667 49.9333 56.3333 53 57.8C56.0667 59.1333 60.6 60.8667 66.6 63C75.5333 66.0667 82.8667 69.1333 88.6 72.2C94.4667 75.1333 99.4667 79.3333 103.6 84.8C107.867 90.1333 110 96.9333 110 105.2C110 113.6 107.867 121.133 103.6 127.8C99.4667 134.467 93.4 139.733 85.4 143.6C77.5333 147.467 68.2 149.4 57.4 149.4ZM194.423 114.6V148H177.423C148.757 148 134.423 133.8 134.423 105.4V68.4H120.623V35.8H134.423V8.59999H173.823V35.8H194.223V68.4H173.823V106C173.823 109.067 174.49 111.267 175.823 112.6C177.29 113.933 179.69 114.6 183.023 114.6H194.423ZM319.603 90.6C319.603 93.6667 319.403 96.7333 319.003 99.8H244.803C245.203 105.933 246.87 110.533 249.803 113.6C252.87 116.533 256.736 118 261.403 118C267.936 118 272.603 115.067 275.403 109.2H317.203C315.47 116.933 312.07 123.867 307.003 130C302.07 136 295.803 140.733 288.203 144.2C280.603 147.667 272.203 149.4 263.003 149.4C251.936 149.4 242.07 147.067 233.403 142.4C224.87 137.733 218.136 131.067 213.203 122.4C208.403 113.733 206.003 103.533 206.003 91.8C206.003 80.0667 208.403 69.9333 213.203 61.4C218.003 52.7333 224.67 46.0667 233.203 41.4C241.87 36.7333 251.803 34.4 263.003 34.4C274.07 34.4 283.87 36.6667 292.403 41.2C300.936 45.7333 307.603 52.2667 312.403 60.8C317.203 69.2 319.603 79.1333 319.603 90.6ZM279.603 80.8C279.603 76 278.003 72.2667 274.803 69.6C271.603 66.8 267.603 65.4 262.803 65.4C258.003 65.4 254.07 66.7333 251.003 69.4C247.936 71.9333 245.936 75.7333 245.003 80.8H279.603ZM374.845 51.4C377.912 46.2 382.245 42.0667 387.845 39C393.445 35.9333 400.045 34.4 407.645 34.4C416.579 34.4 424.645 36.7333 431.845 41.4C439.179 46.0667 444.912 52.7333 449.045 61.4C453.312 70.0667 455.445 80.2 455.445 91.8C455.445 103.4 453.312 113.6 449.045 122.4C444.912 131.067 439.179 137.733 431.845 142.4C424.645 147.067 416.579 149.4 407.645 149.4C400.045 149.4 393.445 147.867 387.845 144.8C382.379 141.733 378.045 137.6 374.845 132.4V201.6H335.645V35.8H374.845V51.4ZM415.645 91.8C415.645 84.4667 413.645 78.8 409.645 74.8C405.779 70.6667 400.979 68.6 395.245 68.6C389.512 68.6 384.645 70.6667 380.645 74.8C376.779 78.9333 374.845 84.6 374.845 91.8C374.845 99.1333 376.779 104.867 380.645 109C384.645 113.133 389.512 115.2 395.245 115.2C400.979 115.2 405.779 113.133 409.645 109C413.645 104.733 415.645 99 415.645 91.8ZM545.383 34.8C558.183 34.8 568.316 39.1333 575.783 47.8C583.383 56.3333 587.183 67.9333 587.183 82.6V148H547.983V87.8C547.983 81.4 546.316 76.4 542.983 72.8C539.649 69.0667 535.183 67.2 529.583 67.2C523.716 67.2 519.116 69.0667 515.783 72.8C512.449 76.4 510.783 81.4 510.783 87.8V148H471.583V-1.90735e-06H510.783V51.8C514.249 46.7333 518.916 42.6667 524.783 39.6C530.783 36.4 537.649 34.8 545.383 34.8ZM627.692 149.6C620.759 149.6 615.159 147.733 610.892 144C606.759 140.133 604.692 135.267 604.692 129.4C604.692 123.533 606.759 118.667 610.892 114.8C615.159 110.933 620.759 109 627.692 109C634.492 109 639.959 110.933 644.092 114.8C648.359 118.667 650.492 123.533 650.492 129.4C650.492 135.133 648.359 139.933 644.092 143.8C639.959 147.667 634.492 149.6 627.692 149.6Z" fill="#1A2029"/>
</svg>
